<?xml version="1.0" encoding="UTF-8" standalone="no"?>
<!DOCTYPE svg PUBLIC "-//W3C//DTD SVG 20010904//EN" "http://www.w3.org/TR/2001/REC-SVG-20010904/DTD/svg10.dtd">
<svg version="1.0" xmlns="http://www.w3.org/2000/svg" width="310.000000pt" height="380.000000pt" viewBox="0 0 310.000000 380.000000" preserveAspectRatio="xMidYMid meet">
<metadata>
Created by potrace 1.14, written by Peter Selinger 2001-2017
</metadata>
<g transform="translate(0.000000,380.000000) scale(0.100000,-0.100000)" fill="#000000" stroke="none">
<path d="M113 3645 c-3 -9 -2 -37 2 -63 4 -26 9 -542 10 -1147 4 -1312 -1 -1237 112 -1508 25 -61 54 -123 63 -137 9 -14 20 -33 24 -44 9 -25 152 -185 196 -219 19 -15 64 -52 100 -82 98 -83 204 -131 465 -210 66 -20 138 -44 160 -52 98 -37 126 -47 226 -77 l106 -32 103 33 c212 68 437 155 555 215 231 116 326 180 411 277 148 168 226 315 279 524 l35 137 3 1196 2 1195 -24 -6 c-13 -3 -117 -5 -230 -4 -270 3 -450 3 -956 1 -399 -2 -713 1 -1353 13 -250 5 -283 3 -289 -10z m87 -15 c0 -5 -4 -10 -10 -10 -5 0 -10 5 -10 10 0 6 5 10 10 10 6 0 10 -4 10 -10z m2702 -48 c11 -11 17 -2109 6 -2250 -20 -280 -126 -512 -322 -707 -109 -108 -164 -145 -346 -236 -150 -75 -313 -141 -485 -197 -139 -45 -201 -46 -350 -8 -113 28 -315 95 -356 116 -20 11 -20 13 -6 22 10 5 17 15 17 22 0 26 40 56 75 56 23 0 43 8 57 22 22 22 100 58 126 58 19 0 14 -35 -8 -55 -26 -23 -25 -40 1 -51 16 -7 22 -20 24 -48 1 -21 8 -42 16 -47 20 -12 53 13 57 44 2 15 16 35 32 47 35 25 46 63 25 93 -20 29 -19 47 3 47 10 0 27 7 38 15 27 20 51 19 91 -6 31 -20 35 -20 52 -5 22 20 49 21 70 2 9 -7 26 -17 38 -20 18 -6 24 -2 29 19 9 34 -29 88 -73 104 -18 7 -33 18 -33 26 0 7 -14 16 -30 20 -24 5 -37 1 -61 -19 -35 -30 -47 -32 -76 -11 l-22 15 24 53 c16 34 26 81 30 137 9 113 30 211 56 262 26 51 22 92 -18 208 -37 106 -50 195 -27 186 9 -3 30 -6 49 -6 26 0 37 -7 56 -35 27 -39 82 -61 131 -51 24 5 30 1 41 -27 18 -43 38 -58 86 -64 32 -4 42 -11 49 -33 10 -26 37 -42 93 -54 19 -4 28 -14 31 -33 3 -16 8 -36 12 -45 6 -13 -4 -23 -51 -46 -69 -35 -167 -110 -203 -155 -50 -62 -63 -109 -58 -195 9 -126 48 -181 163 -231 38 -17 69 -22 130 -22 90 0 144 16 208 59 37 26 59 47 140 133 9 11 17 27 17 37 1 9 9 42 20 72 11 30 19 68 20 84 0 23 3 27 12 18 20 -20 26 -14 34 34 6 41 4 49 -20 70 -21 20 -26 34 -26 74 0 28 4 50 10 50 12 0 100 60 118 80 7 8 18 27 23 43 12 29 29 36 29 11 0 -25 56 -74 85 -74 30 0 65 16 82 39 17 22 11 36 -18 36 -36 0 -47 35 -54 171 -6 112 -5 125 15 164 12 23 37 50 56 62 48 28 45 48 -8 48 -86 -1 -214 -73 -252 -144 -27 -51 -90 -73 -117 -40 -10 12 -10 20 -1 35 15 23 8 39 -17 39 -78 0 -18 -166 62 -171 22 -2 45 -5 60 -8 26 -5 -62 -107 -98 -113 -30 -5 -32 38 -3 69 23 24 23 25 4 39 -11 8 -30 14 -42 14 -18 0 -33 19 -73 87 -28 49 -51 93 -51 99 0 6 9 19 20 29 43 39 20 55 -49 34 -35 -10 -37 -9 -95 47 l-59 57 17 28 c20 34 10 42 -51 41 -37 0 -42 2 -32 14 6 8 41 29 78 47 61 30 73 32 169 32 101 0 103 0 125 -29 20 -24 26 -27 44 -18 26 14 41 109 23 143 -34 63 -45 128 -42 248 1 76 6 109 17 121 8 9 15 23 16 31 0 8 11 32 24 54 13 22 28 49 33 60 5 11 19 29 31 39 18 16 25 17 47 8 31 -15 30 -15 48 4 26 25 19 58 -22 105 -46 53 -63 105 -64 201 -1 111 37 337 61 361 6 6 11 19 11 29 0 27 41 78 62 78 10 0 18 4 18 9 0 5 14 8 31 7 45 -2 61 26 31 56 -21 21 -32 23 -155 25 -72 0 -132 5 -132 10 0 4 20 18 45 31 24 12 51 29 59 37 13 12 12 15 -2 21 -10 3 -30 1 -45 -5 -15 -5 -90 -15 -167 -21 -77 -6 -176 -17 -220 -25 -44 -9 -107 -20 -140 -26 -186 -32 -540 -140 -649 -198 -27 -14 -64 -34 -82 -44 -39 -20 -42 -36 -13 -63 36 -32 47 -67 60 -177 9 -81 9 -110 0 -121 -6 -7 -9 -20 -6 -29 8 -19 -20 -114 -56 -194 -25 -57 -31 -63 -58 -63 -37 0 -45 22 -36 90 7 54 25 75 73 85 17 3 32 8 32 10 0 17 -17 38 -41 51 -27 13 -29 19 -29 72 0 68 8 83 51 97 48 17 46 33 -5 55 -26 11 -49 27 -52 37 -3 10 -12 33 -20 51 -13 31 -13 33 17 59 28 25 29 28 13 40 -10 7 -33 13 -51 13 -18 0 -33 4 -33 10 0 21 57 70 95 82 28 9 42 21 49 41 11 31 2 45 -34 52 -12 2 -23 6 -24 7 -20 49 -55 61 -110 40 -36 -14 -40 -14 -52 3 -14 19 -55 17 -112 -6 -30 -12 -33 -12 -48 9 -20 29 -27 28 -67 -8 -23 -20 -45 -30 -66 -30 -22 0 -43 -10 -69 -34 -33 -31 -37 -39 -37 -85 l0 -51 -55 -31 c-71 -40 -87 -55 -99 -89 -7 -22 -6 -33 5 -47 11 -13 17 -15 20 -5 14 33 42 33 139 0 110 -37 117 -50 59 -106 -27 -27 -35 -41 -31 -60 4 -19 -2 -31 -23 -49 -41 -34 -55 -83 -36 -122 9 -16 24 -34 33 -40 17 -9 16 -11 -6 -35 -19 -20 -23 -32 -18 -61 5 -28 2 -37 -14 -46 -44 -23 -79 -126 -49 -144 17 -10 11 -36 -15 -67 -39 -46 -35 -102 12 -150 36 -37 36 -38 18 -58 -13 -15 -16 -29 -12 -56 6 -36 50 -94 71 -94 31 -1 37 -16 21 -54 -15 -36 -15 -41 5 -90 23 -57 39 -71 94 -81 31 -6 36 -11 36 -36 0 -33 27 -54 92 -74 l43 -12 7 -64 c4 -39 26 -116 57 -196 65 -173 75 -207 72 -273 -6 -163 -78 -405 -126 -424 -18 -7 -44 5 -91 41 -37 28 -46 28 -68 4 -9 -10 -33 -21 -52 -24 -70 -12 -91 -57 -26 -57 20 0 55 -5 77 -10 41 -9 74 3 42 16 -18 7 -24 44 -7 44 6 0 30 -10 52 -21 l42 -21 -23 -19 c-26 -22 -80 -25 -145 -8 -40 10 -46 9 -88 -20 -48 -32 -58 -47 -58 -86 0 -37 21 -42 45 -11 20 25 23 26 35 11 16 -20 75 -13 102 12 11 10 26 13 47 8 27 -6 30 -10 25 -31 -4 -15 -2 -24 5 -24 8 0 9 -5 1 -19 -24 -45 -3 -114 27 -90 7 7 13 17 13 24 0 19 101 101 134 109 15 4 43 2 62 -4 26 -9 38 -9 49 0 9 7 26 9 46 5 45 -10 18 -24 -58 -30 -53 -4 -61 -8 -96 -47 -50 -55 -70 -101 -61 -140 6 -30 5 -30 -22 -24 -47 11 -254 114 -254 125 0 6 -9 11 -19 11 -42 0 -244 184 -274 250 -6 14 -26 40 -43 57 -17 18 -61 92 -97 165 -80 163 -98 228 -102 378 -3 93 -5 323 -4 410 0 30 -3 345 -6 700 -4 355 -6 652 -6 660 0 8 0 106 1 217 1 111 -1 211 -4 221 -4 11 -2 31 3 46 l10 26 992 -1 c545 0 993 1 994 3 7 7 720 -3 727 -10z m-402 -57 c0 -13 -53 -30 -115 -35 l-70 -7 73 -2 c74 -1 104 -21 32 -21 -23 0 -51 -7 -64 -15 -12 -8 -65 -21 -117 -29 -52 -7 -83 -14 -69 -16 34 -2 -108 -48 -178 -56 -29 -4 -50 -9 -47 -12 3 -4 -50 -28 -117 -55 -117 -46 -128 -48 -242 -53 -88 -3 -130 -10 -160 -23 l-41 -19 37 -1 c20 -1 40 4 44 10 4 8 28 10 68 6 38 -4 54 -2 41 3 -15 6 -7 9 30 9 45 1 48 0 33 -15 -8 -9 -33 -17 -56 -20 -34 -3 -92 -22 -184 -59 -33 -13 -19 16 15 31 l32 15 -37 -6 c-30 -5 -39 -2 -48 15 -14 26 -8 36 41 60 31 16 39 18 39 6 0 -10 7 -12 22 -8 12 3 17 7 11 9 -23 8 -2 30 30 32 18 1 66 8 107 16 l75 14 -70 -5 c-90 -7 -75 9 25 26 109 18 148 31 75 23 -33 -3 -70 -9 -82 -14 -13 -5 -29 -6 -37 -3 -14 5 -189 -63 -233 -92 -29 -18 -39 -18 -23 2 8 8 32 24 54 36 23 11 57 28 76 38 80 41 408 130 622 170 205 38 408 61 408 45z m-1588 -54 c23 -12 32 -11 62 3 42 20 62 20 70 1 7 -19 39 -19 77 1 28 14 69 12 69 -5 0 -4 -18 -13 -39 -20 -26 -7 -51 -25 -71 -51 -18 -23 -46 -48 -62 -56 -16 -9 -28 -18 -25 -20 9 -9 64 24 93 56 16 17 44 39 63 49 31 17 38 17 73 3 21 -8 38 -19 38 -24 0 -5 -17 -16 -37 -25 -21 -8 -50 -24 -64 -34 -14 -10 -29 -16 -32 -13 -3 3 -22 -5 -42 -19 l-36 -24 27 -17 c17 -12 24 -24 21 -37 -4 -16 -1 -18 18 -13 20 5 26 -2 51 -52 26 -53 28 -68 32 -199 3 -109 1 -157 -12 -207 -30 -119 -22 -213 25 -312 30 -65 29 -88 -3 -59 -21 18 -21 18 -15 -8 5 -19 2 -29 -8 -33 -27 -10 -16 -23 30 -36 40 -11 48 -11 63 4 20 18 42 21 42 7 0 -20 -27 -26 -112 -26 -64 0 -88 3 -88 13 0 22 -18 13 -55 -30 -55 -64 -61 -120 -15 -127 24 -3 25 -3 7 17 -23 25 -17 49 23 87 32 30 55 28 27 -3 -19 -21 -22 -73 -7 -103 17 -31 29 -22 23 16 -8 48 4 44 17 -5 8 -30 16 -40 31 -40 11 0 17 5 14 10 -14 23 6 68 36 80 16 7 34 21 40 32 5 10 27 25 47 34 20 8 54 35 75 59 42 49 137 225 137 254 0 10 7 35 16 56 30 74 55 244 52 363 l-3 113 45 28 c47 28 279 131 340 150 107 33 315 91 380 105 41 9 91 21 111 26 43 12 255 17 265 7 12 -12 -3 -19 -51 -24 -30 -4 -45 -2 -45 6 0 15 -35 14 -68 -3 -15 -7 -58 -19 -97 -25 -38 -7 -131 -28 -205 -48 -74 -19 -151 -39 -170 -44 -58 -13 -239 -89 -299 -124 -34 -20 -58 -29 -62 -23 -12 19 -62 -6 -72 -36 -12 -37 -1 -45 25 -18 l22 21 18 -41 c10 -23 17 -42 16 -43 -2 -2 -20 -10 -40 -18 -36 -15 -52 -37 -27 -37 7 0 9 -10 5 -25 -8 -30 10 -34 19 -5 3 11 10 20 15 20 16 0 22 -21 10 -36 -10 -11 -8 -36 10 -120 12 -58 20 -108 17 -111 -3 -3 -16 2 -29 11 -23 16 -73 21 -102 10 -12 -5 -13 -10 -4 -30 9 -18 8 -28 0 -36 -19 -19 -14 -30 9 -23 23 8 39 -7 39 -37 0 -11 -8 -18 -19 -18 -11 0 -26 -6 -33 -13 -7 -7 -21 -16 -31 -20 -10 -4 -15 -12 -12 -18 4 -6 14 -8 22 -5 18 7 43 -10 43 -30 0 -8 -6 -14 -14 -14 -19 0 -24 -67 -11 -139 7 -39 6 -43 -11 -39 -10 2 -25 16 -32 32 -13 27 -16 28 -61 21 -53 -8 -56 -9 -46 -25 4 -7 18 -9 31 -6 21 6 24 3 24 -19 0 -15 -5 -35 -11 -46 -10 -20 -11 -20 -30 -3 -10 9 -19 23 -19 29 0 7 -11 13 -25 13 -27 0 -34 -22 -10 -32 20 -7 5 -39 -31 -62 -33 -22 -46 -8 -14 16 l24 18 -32 -3 c-18 -1 -43 -12 -55 -24 -13 -11 -31 -21 -40 -21 -21 0 -21 -9 -2 -34 8 -10 12 -23 9 -28 -8 -13 -42 10 -46 32 -2 12 -7 19 -13 18 -16 -5 -6 -101 12 -115 8 -6 12 -16 8 -22 -3 -6 -2 -11 3 -11 5 0 20 15 33 34 12 19 40 41 61 51 21 9 38 20 38 25 0 5 17 25 37 44 29 27 43 34 61 29 16 -4 31 2 48 18 28 26 28 24 9 -56 -8 -33 -14 -64 -14 -70 1 -22 38 92 38 120 1 34 15 62 24 48 5 -8 -4 -64 -19 -118 l-6 -20 16 20 c16 19 17 18 12 -25 -5 -44 -5 -44 5 -11 6 19 9 45 6 58 -2 12 0 20 4 17 5 -3 9 6 9 20 0 35 10 56 27 56 12 0 14 -9 9 -47 -13 -89 -38 -204 -57 -260 -13 -37 -15 -53 -6 -51 19 7 64 155 77 253 6 50 15 112 20 138 6 27 10 81 10 122 0 84 9 137 21 129 5 -3 9 21 10 53 1 57 1 57 14 28 11 -26 37 -190 48 -305 2 -21 4 -13 5 23 1 31 -5 100 -13 153 -9 53 -13 99 -10 102 13 13 26 -19 44 -108 10 -52 19 -88 20 -78 0 9 -6 52 -14 95 -8 43 -15 94 -15 113 l1 35 14 -34 c53 -122 95 -437 70 -534 -8 -29 8 -39 19 -11 11 29 5 209 -10 289 -8 44 -19 106 -24 137 -12 69 -76 296 -90 320 -5 9 -6 19 -1 22 11 7 86 -160 112 -249 72 -252 93 -362 104 -568 6 -105 -7 -220 -26 -241 -5 -6 -20 0 -36 16 -32 28 -46 35 -123 54 -83 20 -169 18 -208 -6 -43 -26 -56 -18 -48 32 14 86 -61 168 -153 168 -30 0 -43 -5 -51 -21 -9 -17 -14 -18 -26 -8 -13 11 -12 15 11 27 15 7 25 16 22 19 -7 6 -67 -25 -67 -35 1 -25 32 -44 69 -44 23 0 41 -3 41 -7 0 -10 -35 -21 -68 -21 -13 0 -20 -4 -17 -10 17 -27 118 6 113 37 -5 28 19 25 56 -8 29 -25 36 -38 36 -69 0 -20 -5 -52 -11 -69 -18 -51 -1 -58 65 -28 45 21 67 25 112 21 70 -5 136 -22 130 -33 -7 -11 32 -46 40 -38 4 4 1 13 -6 22 -20 24 -7 26 27 6 17 -11 33 -31 37 -47 10 -39 24 -54 51 -54 16 0 25 8 29 25 8 33 23 32 44 -5 9 -16 22 -30 29 -30 6 0 19 -7 28 -16 12 -12 19 -13 29 -5 10 9 21 8 42 -1 l29 -12 -27 -4 c-54 -7 -25 -32 38 -32 40 0 42 -5 12 -32 -17 -14 -19 -21 -10 -25 10 -4 10 -8 1 -19 -9 -11 -8 -14 6 -14 9 0 19 9 22 20 10 36 36 17 89 -64 66 -100 67 -102 102 -226 34 -119 48 -288 31 -374 -27 -131 -92 -246 -174 -308 -62 -47 -99 -58 -197 -58 -61 0 -85 5 -115 22 -80 45 -103 77 -123 171 -11 47 -11 67 0 112 7 31 18 59 23 62 6 4 7 -5 3 -23 -30 -134 -20 -188 41 -233 57 -41 90 -51 168 -51 141 0 276 130 279 270 1 39 -2 45 -21 48 -20 3 -22 0 -17 -27 8 -39 -12 -41 -50 -6 -49 45 -29 83 45 88 41 3 44 5 45 33 1 40 -4 46 -27 33 -16 -8 -25 -7 -38 5 -22 20 -31 20 -31 2 0 -8 14 -19 32 -25 36 -13 33 -25 -5 -16 -30 8 -64 42 -69 69 -2 16 6 22 42 33 54 15 79 42 73 78 -6 27 -33 35 -33 10 0 -8 -4 -15 -10 -15 -13 0 -13 6 2 30 9 14 9 23 2 30 -8 8 -17 -1 -30 -34 -21 -51 -27 -54 -51 -27 -18 22 -35 19 -26 -4 9 -25 -24 -17 -46 11 -25 31 -20 46 27 77 20 13 44 36 52 51 13 25 13 29 -3 41 -9 7 -17 18 -17 24 0 21 -25 6 -28 -17 -2 -15 2 -22 12 -22 24 0 19 -16 -15 -44 -44 -37 -115 -37 -155 0 l-28 27 23 16 c13 9 41 33 63 54 32 32 42 36 53 27 8 -7 15 -19 15 -26 0 -19 16 -18 24 2 8 20 -1 34 -21 34 -8 0 -28 9 -44 21 -34 24 -49 18 -49 -20 0 -30 -11 -43 -45 -54 -16 -6 -15 -2 7 17 30 27 27 36 -14 36 -25 0 -28 -3 -23 -20 5 -17 2 -20 -22 -20 -16 0 -35 6 -42 13 -11 10 -13 8 -8 -10 3 -13 1 -23 -3 -23 -11 0 -40 29 -40 39 0 8 96 111 103 111 3 0 7 -9 10 -20 7 -28 27 -25 27 5 0 18 -5 25 -20 25 -11 0 -20 7 -20 15 0 8 -7 15 -15 15 -7 0 -18 7 -23 16 -12 21 -32 10 -32 -17 0 -11 -7 -19 -16 -19 -10 0 -14 -6 -10 -15 7 -19 -40 -33 -57 -16 -16 16 -25 14 -29 -9 -3 -19 -5 -19 -32 -5 -16 9 -31 13 -33 11 -10 -10 7 -23 46 -36 36 -11 44 -11 85 10 25 12 46 28 46 35 0 7 7 15 15 19 26 10 17 -12 -23 -54 -43 -44 -48 -45 -121 -29 -34 7 -57 19 -71 37 -24 30 -25 29 24 82 33 37 41 41 57 32 12 -8 20 -8 24 -1 13 20 -4 39 -35 39 -16 0 -30 4 -30 8 0 13 -48 32 -65 26 -8 -4 -15 -17 -15 -30 0 -13 -5 -24 -10 -24 -19 0 -22 28 -5 54 17 26 15 30 -18 27 -10 -2 -21 7 -26 20 l-8 23 -13 -23 c-8 -16 -10 -43 -7 -75 l6 -51 -19 24 c-11 13 -20 34 -20 47 0 12 -5 26 -12 30 -8 5 -5 11 7 20 18 13 18 14 0 34 -40 45 -139 45 -115 0 8 -15 6 -20 -12 -26 -12 -4 -24 -3 -25 2 -2 5 -8 16 -13 24 -9 13 -11 13 -19 1 -13 -20 -41 3 -41 32 0 15 -3 18 -11 10 -14 -14 -8 -54 11 -64 8 -4 29 -13 47 -19 18 -7 35 -21 38 -31 7 -22 61 -53 75 -44 6 3 10 13 10 21 0 8 5 14 10 14 14 0 12 -38 -2 -54 -7 -7 -20 -11 -30 -8 -24 6 -23 -5 3 -18 15 -9 24 -8 35 1 11 9 14 8 14 -5 0 -10 -11 -19 -31 -23 -36 -7 -25 -25 15 -25 30 0 33 -10 11 -28 -12 -10 -21 -10 -42 -1 -14 6 -28 10 -30 7 -7 -7 53 -36 74 -36 14 0 18 -9 20 -44 1 -24 15 -87 32 -140 33 -104 36 -123 21 -146 -9 -13 -11 -13 -19 0 -6 8 -13 11 -18 7 -4 -4 -2 -17 5 -27 16 -26 15 -40 -3 -40 -17 0 -20 -31 -5 -46 6 -6 6 -21 1 -42 -5 -18 -13 -69 -17 -115 -4 -45 -14 -92 -22 -105 -8 -12 -19 -43 -23 -69 -5 -25 -15 -51 -23 -57 -15 -12 -29 -46 -19 -46 3 0 11 7 18 17 11 15 14 15 36 0 31 -22 66 -21 114 3 44 22 51 21 35 -10 -6 -11 -8 -31 -4 -43 6 -18 4 -20 -7 -10 -20 16 -104 19 -122 5 -8 -7 -21 -10 -30 -7 -33 13 -64 -84 -36 -112 13 -13 4 -33 -15 -33 -7 0 -23 11 -35 24 -27 29 -23 67 11 103 31 33 7 28 -51 -11 -30 -20 -70 -38 -97 -42 -28 -4 -50 -14 -57 -25 -15 -25 -37 -24 -37 0 0 11 -5 23 -10 26 -19 12 -1 22 51 29 67 9 95 24 141 75 89 100 147 447 102 611 -8 30 -48 123 -89 205 -77 158 -116 254 -118 295 -1 20 2 25 21 23 22 -3 30 11 12 22 -5 3 -10 17 -10 30 0 25 -40 106 -70 140 -9 11 -22 29 -28 40 -10 18 -11 18 -12 2 0 -10 4 -26 9 -35 14 -27 2 -72 -20 -72 -21 0 -26 -16 -7 -22 23 -8 -4 -30 -29 -23 -19 4 -26 1 -30 -15 -6 -22 -18 -26 -28 -10 -9 15 -25 12 -25 -5 0 -20 -29 -19 -52 2 -10 9 -21 13 -24 10 -9 -9 16 -37 41 -47 18 -8 18 -9 1 -9 -33 -1 -96 41 -96 64 0 17 11 25 60 39 33 10 78 31 100 47 47 34 50 35 50 9 0 -33 19 -23 26 14 6 34 3 39 -33 81 -7 7 -13 21 -13 29 0 19 -11 21 -28 4 -9 -9 -12 -5 -12 20 0 18 -7 35 -16 40 -11 6 -15 17 -11 31 3 14 0 24 -9 28 -8 3 -13 10 -12 17 6 23 -13 16 -39 -14 -17 -21 -32 -30 -45 -27 -10 3 -22 -2 -27 -11 -8 -13 -12 -14 -22 -5 -10 10 -15 9 -25 -5 -11 -15 -16 -15 -35 -4 -17 11 -23 11 -29 2 -9 -15 -30 -4 -30 16 0 8 -4 14 -10 14 -5 0 -10 -9 -10 -20 0 -31 -17 -24 -46 19 -38 58 -30 77 30 73 40 -2 130 15 178 33 8 3 22 -1 33 -9 19 -14 19 -15 1 -35 -13 -14 -15 -21 -6 -21 10 0 10 -3 0 -15 -10 -12 -10 -15 3 -15 17 0 57 50 57 71 0 7 -9 22 -20 34 -15 16 -21 37 -22 80 l-2 58 -28 -32 c-15 -17 -37 -31 -47 -31 -11 0 -26 -8 -33 -18 -22 -31 -38 -35 -60 -15 -15 13 -22 15 -25 6 -6 -16 -35 -17 -51 -1 -9 9 -12 9 -12 -3 0 -28 35 -38 116 -33 90 5 93 -2 6 -16 -69 -12 -97 -4 -137 36 -42 42 -51 77 -28 116 13 22 26 32 39 30 81 -13 115 -13 162 1 47 14 52 14 61 0 4 -9 6 -25 3 -37 -5 -19 -4 -19 11 -7 20 16 23 57 5 63 -9 3 -9 11 3 29 19 29 34 174 19 184 -6 4 -2 17 11 35 16 21 20 37 16 59 -6 26 -1 36 28 63 28 25 35 38 35 70 0 21 7 50 16 63 15 23 15 28 0 65 -19 49 -19 50 -2 50 7 0 20 7 27 16 12 15 11 16 -8 10 -30 -9 -39 11 -16 36 18 20 18 21 -7 14 -14 -4 -35 -12 -47 -18 -18 -9 -27 -8 -41 5 -22 20 -32 21 -32 4 0 -7 20 -33 45 -57 44 -43 71 -95 55 -105 -27 -17 -90 54 -90 100 0 8 -4 15 -9 15 -5 0 -11 -21 -13 -47 -3 -27 -8 -57 -12 -68 -6 -17 -5 -17 10 3 20 27 38 29 29 2 -4 -11 -2 -20 4 -20 6 0 11 6 11 12 0 7 12 0 27 -14 23 -23 25 -31 16 -50 -6 -13 -15 -34 -21 -48 -26 -66 -96 -115 -128 -89 -11 9 -11 15 1 39 22 43 0 48 -36 9 -29 -32 -32 -32 -57 -18 -15 8 -31 27 -36 42 -13 35 14 72 74 104 24 13 52 31 62 40 11 10 18 12 18 5 0 -27 20 -9 26 23 10 53 -3 105 -25 105 -11 0 -21 6 -24 14 -3 7 -25 16 -49 19 -66 10 -118 27 -118 39 0 10 52 7 138 -8 24 -5 32 -3 32 9 0 18 -26 41 -39 33 -15 -10 -231 -15 -231 -6 0 5 15 19 33 31 17 13 35 28 39 33 5 7 28 4 70 -8 97 -27 108 -29 108 -18 0 9 -36 23 -72 27 -47 5 -35 23 37 59 50 26 63 28 131 24 64 -4 79 -2 97 14 l22 19 -22 -11 c-24 -11 -73 -4 -73 11 0 6 -8 5 -19 -1 -11 -5 -26 -7 -35 -4 -8 3 -30 -1 -47 -10 -32 -16 -32 -16 -14 4 10 11 16 22 14 25 -9 8 -68 -39 -78 -62 -6 -13 -17 -23 -24 -23 -11 0 -12 12 -6 57 9 63 18 73 72 73 27 0 43 7 59 25 12 14 24 24 27 22 4 -1 18 -9 33 -16z m1734 -72 c3 -5 -8 -37 -24 -71 -51 -109 -87 -320 -78 -457 l6 -94 -68 66 c-88 88 -194 155 -327 210 -38 15 -77 35 -85 43 -13 14 -11 15 25 9 30 -5 36 -4 25 4 -13 9 -12 11 5 12 11 1 -4 5 -34 10 -41 7 -57 6 -63 -3 -6 -10 -8 -10 -8 0 0 6 -7 12 -16 12 -9 0 -12 5 -8 11 7 12 256 7 304 -7 21 -6 23 -5 12 7 -10 11 -56 14 -215 14 -111 0 -224 -3 -252 -8 -31 -4 -46 -4 -40 2 9 9 92 28 225 51 l55 9 -68 -5 c-75 -5 -85 9 -14 22 30 5 37 9 24 13 -12 5 16 17 85 39 57 17 114 34 128 36 48 9 245 58 300 75 55 16 95 17 106 0z m-1451 -169 c-3 -5 -10 -10 -16 -10 -5 0 -9 5 -9 10 0 6 7 10 16 10 8 0 12 -4 9 -10z m360 -86 c-11 -8 -31 -18 -45 -21 -14 -3 -47 -17 -74 -29 -58 -28 -56 -28 -56 -11 0 13 141 74 175 75 l20 1 -20 -15z m370 -34 c22 -5 55 -11 74 -15 19 -3 42 -11 50 -19 9 -7 54 -30 100 -50 46 -20 102 -49 125 -65 23 -15 66 -44 96 -64 58 -37 138 -113 179 -167 13 -17 34 -36 47 -41 31 -11 30 -25 -2 -33 -34 -9 -77 -56 -120 -133 -43 -75 -53 -111 -68 -225 l-11 -88 -49 97 c-71 139 -225 378 -306 473 -25 30 -64 80 -85 110 l-40 55 40 -34 c22 -19 58 -53 80 -76 22 -23 29 -27 15 -11 -13 17 -47 55 -74 84 -28 28 -46 52 -40 52 6 0 47 -30 90 -67 97 -81 124 -100 70 -50 -70 66 -168 143 -231 182 -74 45 -41 37 85 -22 117 -54 105 -38 -21 28 -133 70 -25 42 124 -32 33 -16 62 -27 65 -25 7 7 -179 93 -261 121 -37 12 -71 25 -74 28 -7 8 89 -1 142 -13z m-409 -9 c-3 -4 -20 -14 -38 -21 -18 -8 -45 -22 -60 -32 -18 -12 -29 -15 -33 -8 -9 15 -6 18 62 46 63 26 77 29 69 15z m24 -18 c-1 -9 -118 -86 -137 -91 -7 -2 -13 3 -13 10 0 8 30 30 68 51 69 38 82 42 82 30z m-687 -32 c-6 -3 -16 -19 -24 -35 -8 -18 -25 -33 -41 -37 -36 -9 -45 6 -17 28 12 10 33 28 48 40 14 11 30 19 35 16 4 -3 4 -8 -1 -12z m407 -11 c0 -5 -7 -10 -15 -10 -8 0 -15 5 -15 10 0 6 7 10 15 10 8 0 15 -4 15 -10z m270 6 c0 -6 -127 -96 -136 -96 -4 0 3 11 16 25 13 14 27 25 32 25 5 0 26 11 46 25 38 26 42 28 42 21z m15 -36 c-4 -6 -2 -17 4 -24 8 -10 3 -19 -24 -38 -19 -13 -57 -46 -85 -72 -28 -26 -55 -46 -61 -44 -16 5 36 64 98 110 30 22 52 42 49 45 -5 5 -18 -4 -103 -73 -30 -24 -33 -25 -33 -8 0 12 26 36 72 67 70 46 96 58 83 37z m1395 0 c0 -5 -2 -10 -4 -10 -3 0 -8 5 -11 10 -3 6 -1 10 4 10 6 0 11 -4 11 -10z m-1060 -21 c0 -6 -4 -7 -10 -4 -5 3 -10 11 -10 16 0 6 5 7 10 4 6 -3 10 -11 10 -16z m5 -71 c43 -46 96 -108 118 -138 22 -30 44 -57 47 -60 12 -9 149 -209 172 -251 31 -56 47 -83 91 -157 20 -35 37 -68 37 -73 0 -5 9 -22 20 -37 20 -28 80 -183 80 -207 0 -11 -16 -13 -83 -8 -52 3 -105 1 -138 -6 -64 -15 -162 -63 -203 -100 l-29 -26 8 45 c19 115 21 188 7 280 -14 96 -60 287 -88 370 -9 25 -24 74 -34 110 -11 36 -37 107 -59 159 -23 52 -39 97 -36 99 6 6 2 13 59 -80 26 -43 50 -78 52 -78 3 0 0 9 -6 20 -14 26 -3 26 19 -2 10 -12 23 -18 30 -14 8 5 -3 27 -36 69 -85 109 -125 167 -115 167 5 0 45 -37 87 -82z m-419 -69 c-47 -45 -86 -86 -86 -92 0 -6 34 23 75 64 42 41 80 76 85 77 18 6 11 -14 -11 -34 -12 -10 -69 -74 -126 -142 -58 -68 -107 -121 -109 -119 -8 7 19 60 51 102 16 21 24 36 18 32 -9 -6 -13 -1 -13 14 0 30 190 214 198 191 2 -6 -35 -47 -82 -93z m304 45 c0 -8 -4 -14 -10 -14 -5 0 -10 9 -10 21 0 11 5 17 10 14 6 -3 10 -13 10 -21z m-297 -136 c-38 -46 -90 -111 -117 -145 -43 -55 -96 -104 -96 -87 0 20 253 314 271 314 5 0 -21 -37 -58 -82z m-223 52 c0 -5 -4 -10 -10 -10 -5 0 -10 5 -10 10 0 6 5 10 10 10 6 0 10 -4 10 -10z m228 -111 c-35 -44 -74 -93 -87 -109 -50 -62 -10 -26 55 50 37 43 70 77 72 75 3 -2 -8 -20 -24 -39 -16 -19 -60 -80 -99 -135 -38 -55 -76 -101 -82 -101 -17 0 -16 5 3 38 l16 27 -24 -27 c-27 -32 -39 -35 -35 -10 4 25 33 66 116 167 101 122 133 155 143 149 4 -3 -20 -41 -54 -85z m-676 25 c28 -14 34 -14 72 0 51 20 57 20 50 2 -3 -8 -19 -20 -35 -26 -22 -10 -27 -16 -19 -25 8 -10 6 -15 -10 -20 -25 -8 -98 3 -106 16 -8 13 -24 11 -24 -2 0 -20 33 -38 70 -39 24 0 31 -3 23 -11 -15 -15 -81 -1 -104 22 -25 25 -24 45 6 74 28 29 36 30 77 9z m893 -34 c4 -6 4 -18 1 -27 -5 -12 -9 -13 -21 -3 -8 7 -15 19 -15 26 0 16 26 19 35 4z m-795 -87 c0 -27 -38 -83 -55 -83 -8 0 -15 -9 -15 -19 0 -25 -17 -36 -34 -22 -9 7 -16 7 -25 -2 -10 -9 -15 -8 -25 5 -10 13 -15 15 -24 6 -9 -9 -12 -9 -12 1 0 8 -7 11 -20 8 -11 -3 -20 0 -20 6 0 7 -7 4 -14 -5 -7 -10 -16 -15 -19 -11 -15 15 -5 53 21 81 28 30 31 31 103 26 54 -4 81 -1 99 9 34 20 40 20 40 0z m561 -30 c-26 -48 -97 -130 -106 -121 -4 3 12 33 36 65 79 107 110 133 70 56z m-571 -76 c0 -33 -125 -86 -167 -70 -26 10 -1 23 47 23 62 0 79 7 91 36 9 26 29 33 29 11z m511 -60 c-24 -40 -59 -73 -67 -64 -7 6 78 107 85 101 2 -1 -6 -18 -18 -37z m-711 18 c7 -8 8 -15 2 -15 -5 0 -15 7 -22 15 -7 8 -8 15 -2 15 5 0 15 -7 22 -15z m969 -22 c-1 -16 -4 -39 -8 -53 l-7 -25 -9 25 c-9 24 -9 42 0 68 8 23 25 12 24 -15z m-505 -166 c-3 -8 -12 -18 -20 -21 -10 -4 -13 -2 -8 7 21 37 41 47 28 14z m-297 7 c-3 -3 -12 -4 -19 -1 -8 3 -5 6 6 6 11 1 17 -2 13 -5z m343 -3 c0 -5 -7 -12 -16 -15 -24 -9 -28 -7 -14 9 14 17 30 20 30 6z m153 -98 c9 -9 -12 -33 -29 -33 -8 0 -14 9 -14 20 0 19 28 28 43 13z m-404 -81 c-36 -27 -73 -40 -130 -48 -39 -5 -50 -4 -45 5 4 6 13 11 19 10 28 -5 105 14 127 32 14 10 31 19 39 19 8 0 4 -8 -10 -18z m318 12 c-3 -3 -12 -4 -19 -1 -8 3 -5 6 6 6 11 1 17 -2 13 -5z m-273 -53 c14 -16 15 -24 6 -40 -6 -12 -8 -25 -6 -30 3 -5 -2 -12 -12 -16 -15 -7 -14 -9 6 -14 32 -8 33 -25 2 -29 -14 -2 -29 -10 -33 -18 -6 -10 -13 -12 -27 -4 -27 14 -32 13 -25 -10 8 -26 -5 -25 -33 1 -24 21 -45 18 -35 -6 11 -29 -25 -4 -37 26 -15 35 -29 30 -22 -7 3 -19 1 -25 -7 -20 -20 13 -42 66 -39 94 3 26 7 28 81 39 43 6 92 21 110 32 41 25 50 25 71 2z m-4 -171 c-23 -18 -50 -26 -50 -15 0 4 58 33 70 34 3 0 -6 -8 -20 -19z m1110 -60 c0 -5 -4 -10 -10 -10 -5 0 -10 5 -10 10 0 6 5 10 10 10 6 0 10 -4 10 -10z m-934 -27 c-10 -10 -19 5 -10 18 6 11 8 11 12 0 2 -7 1 -15 -2 -18z m14 -27 c0 -7 -9 -16 -20 -19 -11 -3 -20 -13 -20 -24 0 -10 -9 -24 -20 -30 -16 -11 -21 -10 -28 3 -11 20 -25 3 -16 -20 7 -17 47 -32 61 -23 5 3 15 2 23 -4 10 -6 0 -9 -33 -9 -38 0 -53 5 -74 26 l-26 26 24 14 c13 7 31 14 39 14 8 0 31 14 50 30 39 34 40 35 40 16z m-70 -5 c0 -10 -55 -31 -79 -30 -9 0 2 9 24 19 47 22 55 23 55 11z m983 -18 c-7 -2 -21 -2 -30 0 -10 3 -4 5 12 5 17 0 24 -2 18 -5z m27 -23 c0 -5 -17 -10 -37 -9 -31 0 -34 2 -18 9 28 12 55 12 55 0z m-1100 -40 c0 -11 -4 -20 -10 -20 -5 0 -10 9 -10 20 0 11 5 20 10 20 6 0 10 -9 10 -20z m155 -1 c-4 -5 -16 -9 -28 -9 -20 0 -20 0 -2 14 21 15 40 12 30 -5z m256 3 c-7 -2 -18 1 -23 6 -8 8 -4 9 13 5 13 -4 18 -8 10 -11z m171 -44 c3 -18 8 -41 13 -50 4 -10 3 -18 -2 -18 -14 0 -39 62 -35 88 5 31 19 19 24 -20z m1158 16 c0 -8 -7 -22 -15 -30 -8 -9 -16 -25 -16 -37 -1 -12 -3 -35 -4 -52 -4 -46 12 -220 23 -241 5 -11 14 -29 21 -41 9 -18 8 -23 -1 -23 -41 1 -88 84 -88 157 0 39 -14 37 -25 -4 -10 -42 -77 -153 -92 -153 -18 0 -16 17 8 59 l21 36 -22 -27 c-12 -16 -30 -28 -41 -28 -10 0 -18 -3 -17 -7 2 -5 -1 -9 -7 -11 -15 -4 -18 27 -5 43 6 8 19 11 27 8 12 -5 15 -2 10 10 -4 11 4 28 24 49 27 30 54 96 44 106 -2 3 -11 -1 -19 -7 -20 -17 -101 -10 -101 8 0 8 14 18 31 23 32 8 57 28 109 88 35 40 103 90 122 90 7 0 13 -7 13 -16z m-475 -4 c-3 -5 -11 -10 -16 -10 -6 0 -7 5 -4 10 3 6 11 10 16 10 6 0 7 -4 4 -10z m-585 -30 c0 -5 -4 -10 -10 -10 -5 0 -10 5 -10 10 0 6 5 10 10 10 6 0 10 -4 10 -10z m-490 -62 c0 -12 -5 -10 -64 19 -30 15 -53 30 -50 35 6 9 114 -42 114 -54z m-10 52 c8 -5 12 -12 8 -15 -9 -9 -48 4 -48 16 0 12 21 11 40 -1z m-56 -50 c37 -19 63 -36 58 -38 -13 -4 -128 54 -138 69 -8 14 -6 13 80 -31z m-104 23 c0 -5 43 -28 95 -53 90 -43 113 -60 80 -60 -26 0 -205 102 -205 116 0 8 30 4 30 -3z m530 -28 c0 -2 -7 -5 -15 -9 -9 -3 -15 0 -15 9 0 9 6 12 15 9 8 -4 15 -7 15 -9z m-481 -43 c25 -16 67 -38 94 -51 50 -24 61 -41 27 -41 -38 0 -180 87 -180 110 0 15 9 12 59 -18z m541 8 c0 -5 -11 -10 -25 -10 -14 0 -25 5 -25 10 0 6 11 10 25 10 14 0 25 -4 25 -10z m-338 -67 c13 -32 61 -139 89 -198 33 -72 44 -172 32 -292 -13 -126 -41 -253 -55 -253 -6 0 -23 14 -38 30 -33 36 -43 36 -99 9 -23 -11 -50 -19 -59 -17 -24 5 -18 59 15 133 14 33 34 89 44 125 9 36 29 99 44 140 l27 75 -16 86 c-27 142 -17 240 16 162z m-109 -45 c29 -14 47 -29 47 -40 0 -10 -2 -18 -5 -18 -12 0 -69 33 -88 51 -12 10 -26 19 -31 19 -16 -1 53 -57 99 -82 22 -12 35 -23 28 -25 -14 -5 -65 20 -82 41 -8 9 -19 16 -25 16 -15 -1 63 -70 81 -71 7 -1 18 -2 24 -3 12 -1 27 -30 28 -53 1 -18 -45 -16 -74 3 -14 9 -25 12 -25 6 0 -5 11 -17 25 -26 14 -9 25 -23 25 -31 0 -18 12 -19 28 -3 9 9 12 8 12 -5 0 -10 -6 -20 -14 -23 -20 -7 -37 -59 -25 -71 6 -6 4 -14 -5 -22 -8 -7 -12 -19 -9 -27 3 -8 -3 -21 -13 -29 -11 -7 -16 -17 -11 -21 4 -4 0 -15 -9 -25 -9 -10 -14 -27 -11 -39 3 -12 -1 -24 -11 -30 -14 -8 -15 -11 -3 -19 11 -7 9 -11 -8 -21 -18 -9 -20 -14 -11 -26 10 -11 9 -15 -3 -20 -12 -4 -15 -14 -10 -36 5 -27 4 -30 -16 -23 -15 5 -21 2 -21 -10 0 -9 7 -15 17 -13 13 2 19 -7 24 -37 8 -47 4 -56 -15 -30 -12 17 -16 18 -31 5 -15 -12 -19 -12 -30 3 -8 12 -15 14 -20 8 -3 -6 -15 -11 -26 -11 -10 0 -19 -4 -19 -10 0 -20 -62 -41 -110 -39 -35 2 -55 -2 -68 -14 -27 -24 -32 -21 -32 18 0 32 2 35 19 25 47 -25 144 -4 196 41 68 60 131 208 155 364 22 140 12 215 -44 347 -26 60 -22 71 17 48 17 -10 53 -29 80 -42z m1259 -13 c0 -5 -5 -11 -11 -13 -6 -2 -11 4 -11 13 0 9 5 15 11 13 6 -2 11 -8 11 -13z m-469 -42 c-7 -2 -21 -2 -30 0 -10 3 -4 5 12 5 17 0 24 -2 18 -5z m557 -133 c0 -5 -4 -10 -10 -10 -5 0 -10 5 -10 10 0 6 5 10 10 10 6 0 10 -4 10 -10z m-35 -30 c3 -5 1 -10 -4 -10 -6 0 -11 5 -11 10 0 6 2 10 4 10 3 0 8 -4 11 -10z m-206 -54 c-2 -2 -15 -7 -29 -10 l-25 -7 25 15 c21 12 42 14 29 2z m-131 -65 c3 -8 -1 -12 -9 -9 -7 2 -15 10 -17 17 -3 8 1 12 9 9 7 -2 15 -10 17 -17z m-48 -21 c0 -11 6 -20 14 -20 32 0 25 -23 -19 -65 -61 -60 -100 -146 -104 -232 -1 -16 -33 -17 -49 -1 -19 19 -14 38 9 38 11 0 17 5 14 10 -4 7 -13 6 -27 -1 -28 -15 -38 2 -38 66 0 55 20 95 48 95 14 0 14 2 3 9 -8 5 -21 6 -30 3 -29 -10 32 48 72 69 20 11 37 26 37 34 0 10 11 15 35 15 28 0 35 -4 35 -20z m70 -16 c0 -8 -4 -12 -10 -9 -5 3 -10 10 -10 16 0 5 5 9 10 9 6 0 10 -7 10 -16z m39 -53 c11 -7 12 -13 4 -23 -6 -7 -15 -31 -19 -53 -4 -22 -15 -51 -25 -64 -11 -13 -19 -36 -19 -51 0 -33 -36 -68 -75 -72 -27 -3 -30 0 -30 27 0 24 5 31 23 33 34 5 40 32 12 54 -26 21 -21 41 24 95 19 22 32 30 47 26 15 -4 22 0 26 16 6 23 11 25 32 12z m-304 -41 c3 -5 -3 -10 -15 -10 -12 0 -18 5 -15 10 3 6 10 10 15 10 5 0 12 -4 15 -10z m370 -114 c34 -12 37 -15 20 -22 -11 -4 -23 -12 -27 -18 -4 -6 -14 -3 -27 8 -21 19 -21 19 -21 -2 0 -28 -16 -28 -30 -2 -8 14 -8 26 1 41 11 22 13 22 84 -5z m-1495 -96 c0 -5 -4 -10 -10 -10 -5 0 -10 5 -10 10 0 6 5 10 10 10 6 0 10 -4 10 -10z m1485 -12 c15 -14 -25 -41 -41 -27 -8 6 -14 6 -18 0 -3 -5 -1 -11 6 -13 16 -6 0 -28 -20 -28 -24 0 -62 28 -62 45 0 30 29 45 78 38 26 -3 52 -10 57 -15z m-1019 -12 c16 -17 18 -26 4 -26 -5 0 -14 9 -20 20 -12 23 -5 26 16 6z m684 -6 c0 -13 -29 -32 -39 -25 -15 9 9 44 26 38 7 -3 13 -9 13 -13z m-798 -32 c-9 -9 -12 -7 -12 12 0 19 3 21 12 12 9 -9 9 -15 0 -24z m196 -4 c-10 -10 -28 6 -28 24 0 15 1 15 17 -1 9 -9 14 -19 11 -23z m674 31 c7 -7 -15 -75 -24 -75 -12 0 -36 54 -31 68 5 12 45 17 55 7z m102 -37 c23 -32 20 -38 -18 -38 -37 0 -62 21 -52 45 8 23 53 18 70 -7z m-799 -19 c5 -5 -4 -9 -22 -9 -32 0 -48 11 -36 24 8 7 44 -2 58 -15z m-265 -11 c0 -5 -9 -12 -20 -15 -12 -3 -28 -19 -36 -35 -11 -21 -21 -28 -36 -26 -35 5 -32 26 6 62 27 24 43 32 61 28 14 -2 25 -9 25 -14z m168 -8 c18 -11 39 -20 47 -20 8 0 15 -4 15 -10 0 -12 -16 -13 -56 -1 -18 5 -37 5 -47 -1 -28 -15 -39 1 -20 27 22 30 20 30 61 5z m-110 -12 c-5 -15 -48 -24 -48 -10 0 14 12 22 33 22 10 0 17 -5 15 -12z m592 -13 c39 -20 38 -28 -2 -20 -42 9 -50 14 -43 26 8 12 11 12 45 -6z m-770 -95 c0 -5 -5 -10 -11 -10 -5 0 -7 5 -4 10 3 6 8 10 11 10 2 0 4 -4 4 -10z m170 -65 c0 -16 -38 -40 -48 -30 -4 4 4 15 17 26 28 23 31 23 31 4z m303 -41 c3 -4 -1 -20 -9 -36 -11 -22 -19 -27 -27 -19 -7 7 -7 18 1 36 11 25 23 31 35 19z"/>
<path d="M2273 3473 c9 -2 23 -2 30 0 6 3 -1 5 -18 5 -16 0 -22 -2 -12 -5z"/>
<path d="M2193 3463 c9 -2 25 -2 35 0 9 3 1 5 -18 5 -19 0 -27 -2 -17 -5z"/>
<path d="M2085 3453 c-40 -6 -108 -24 -104 -27 2 -2 47 5 99 14 84 16 87 24 5 13z"/>
<path d="M1910 3410 c-20 -6 -21 -8 -5 -8 11 0 31 4 45 8 20 6 21 8 5 8 -11 0 -31 -4 -45 -8z"/>
<path d="M1848 3393 c7 -3 16 -2 19 1 4 3 -2 6 -13 5 -11 0 -14 -3 -6 -6z"/>
<path d="M2063 3393 c9 -2 23 -2 30 0 6 3 -1 5 -18 5 -16 0 -22 -2 -12 -5z"/>
<path d="M1973 3383 c9 -2 23 -2 30 0 6 3 -1 5 -18 5 -16 0 -22 -2 -12 -5z"/>
<path d="M1725 3370 c-7 -12 2 -12 30 0 19 8 19 9 -2 9 -12 1 -25 -3 -28 -9z"/>
<path d="M1870 3370 c-20 -6 -21 -8 -5 -8 11 0 34 4 50 8 27 7 27 8 5 8 -14 0 -36 -4 -50 -8z"/>
<path d="M1793 3353 c9 -2 23 -2 30 0 6 3 -1 5 -18 5 -16 0 -22 -2 -12 -5z"/>
<path d="M1848 3323 c12 -2 30 -2 40 0 9 3 -1 5 -23 4 -22 0 -30 -2 -17 -4z"/>
<path d="M1763 3313 c9 -2 25 -2 35 0 9 3 1 5 -18 5 -19 0 -27 -2 -17 -5z"/>
<path d="M1598 3253 c7 -3 16 -2 19 1 4 3 -2 6 -13 5 -11 0 -14 -3 -6 -6z"/>
<path d="M1528 3243 c6 -2 18 -2 25 0 6 3 1 5 -13 5 -14 0 -19 -2 -12 -5z"/>
<path d="M1518 3183 c7 -3 16 -2 19 1 4 3 -2 6 -13 5 -11 0 -14 -3 -6 -6z"/>
<path d="M1466 3171 c-4 -5 3 -7 14 -4 23 6 26 13 6 13 -8 0 -17 -4 -20 -9z"/>
<path d="M1085 3355 c-16 -13 -25 -24 -20 -25 6 0 24 11 40 25 17 13 26 24 20 25 -5 0 -23 -11 -40 -25z"/>
<path d="M852 3290 c-28 -26 -28 -41 1 -67 33 -31 75 -34 102 -6 13 12 19 13 25 4 5 -9 9 -7 12 7 7 23 2 31 -36 60 -36 27 -76 28 -104 2z m71 -14 c25 -19 22 -21 -23 -21 -24 0 -40 4 -40 11 0 24 37 29 63 10z"/>
<path d="M975 3290 c3 -5 8 -10 11 -10 2 0 4 5 4 10 0 6 -5 10 -11 10 -5 0 -7 -4 -4 -10z"/>
<path d="M1110 3179 c0 -5 5 -7 10 -4 6 3 10 8 10 11 0 2 -4 4 -10 4 -5 0 -10 -5 -10 -11z"/>
<path d="M1113 3147 c-30 -13 -29 -31 1 -23 35 9 44 -31 11 -46 -14 -6 -22 -15 -19 -19 3 -5 14 -4 25 1 15 9 19 7 19 -6 0 -9 -8 -23 -17 -30 -16 -12 -16 -12 6 -7 l23 6 -6 -79 c-3 -43 -6 -96 -5 -116 0 -21 -5 -38 -10 -38 -6 0 -8 -12 -4 -30 4 -23 2 -30 -11 -30 -9 0 -16 -7 -16 -15 0 -8 5 -15 11 -15 7 0 9 -12 5 -33 -6 -35 2 -97 13 -97 3 0 6 26 6 57 1 55 3 74 24 203 13 77 13 171 0 246 -12 72 -24 86 -56 71z"/>
<path d="M1671 3076 c-7 -8 -8 -17 -3 -20 6 -3 15 1 21 8 7 8 8 17 3 20 -6 3 -15 -1 -21 -8z"/>
<path d="M1100 2980 c0 -5 6 -10 14 -10 8 0 18 5 21 10 3 6 -3 10 -14 10 -12 0 -21 -4 -21 -10z"/>
<path d="M1105 2911 c-10 -17 12 -21 25 -6 10 12 10 15 -3 15 -9 0 -18 -4 -22 -9z"/>
<path d="M1044 2897 c-7 -20 3 -37 22 -37 18 0 17 10 -1 34 -13 17 -15 17 -21 3z"/>
<path d="M1672 2898 c-8 -8 -8 -17 -1 -30 7 -14 6 -20 -6 -24 -12 -5 -14 -14 -10 -34 4 -20 2 -29 -10 -34 -9 -3 -14 -10 -10 -16 10 -17 43 11 51 44 10 43 12 96 4 101 -4 2 -12 -1 -18 -7z"/>
<path d="M1086 2822 c-8 -13 11 -35 23 -28 6 4 11 11 11 16 0 11 -28 21 -34 12z"/>
<path d="M1000 2774 c0 -10 7 -14 22 -12 32 5 35 28 4 28 -17 0 -26 -5 -26 -16z"/>
<path d="M1070 2730 c-8 -5 -11 -12 -7 -16 4 -4 15 0 24 9 18 18 8 23 -17 7z"/>
<path d="M964 2689 c-11 -18 13 -34 31 -19 8 7 15 16 15 21 0 13 -38 11 -46 -2z"/>
<path d="M1050 2638 c0 -4 7 -8 15 -8 8 0 15 4 15 8 0 5 -7 9 -15 9 -8 0 -15 -4 -15 -9z"/>
<path d="M1598 2623 c-20 -5 -24 -18 -8 -28 6 -3 17 0 25 9 17 16 9 25 -17 19z"/>
<path d="M967 2603 c-13 -12 -7 -23 12 -23 26 0 35 16 15 24 -19 7 -19 7 -27 -1z"/>
<path d="M1062 2539 c2 -7 10 -15 17 -17 8 -3 12 1 9 9 -2 7 -10 15 -17 17 -8 3 -12 -1 -9 -9z"/>
<path d="M1712 2500 c0 -19 2 -27 5 -17 2 9 2 25 0 35 -3 9 -5 1 -5 -18z"/>
<path d="M1575 2501 c-3 -6 -17 -11 -31 -11 -14 0 -22 -4 -19 -10 9 -15 41 -12 55 5 7 9 10 18 7 21 -3 3 -8 1 -12 -5z"/>
<path d="M950 2480 c0 -24 19 -26 46 -4 18 15 18 15 -3 9 -14 -4 -23 -2 -23 4 0 6 -4 11 -10 11 -5 0 -10 -9 -10 -20z"/>
<path d="M1040 2465 c0 -10 7 -15 18 -13 21 4 19 22 -2 26 -10 2 -16 -3 -16 -13z"/>
<path d="M1130 2448 c0 -13 6 -18 17 -16 24 5 27 25 3 31 -15 4 -20 0 -20 -15z"/>
<path d="M1545 2431 c-3 -6 -15 -11 -25 -11 -25 0 -35 -19 -15 -26 17 -7 64 30 53 41 -3 4 -9 2 -13 -4z"/>
<path d="M1010 2399 c0 -12 5 -19 12 -17 18 6 20 25 3 31 -10 5 -15 0 -15 -14z"/>
<path d="M1100 2403 c0 -5 4 -14 9 -22 10 -15 41 -8 41 9 0 6 -4 9 -9 5 -5 -3 -12 -1 -16 5 -7 12 -25 14 -25 3z"/>
<path d="M1822 2390 c0 -14 2 -19 5 -12 2 6 2 18 0 25 -3 6 -5 1 -5 -13z"/>
<path d="M974 2334 c3 -9 6 -18 6 -20 0 -2 7 -4 15 -4 18 0 19 12 3 28 -17 17 -31 15 -24 -4z"/>
<path d="M1034 2336 c-3 -8 -4 -23 -2 -33 3 -14 7 -11 20 15 14 27 14 32 2 32 -8 0 -17 -6 -20 -14z"/>
<path d="M1777 2293 c-2 -5 -1 -19 4 -33 7 -23 7 -23 8 8 1 31 -3 40 -12 25z"/>
<path d="M1075 2090 c-3 -5 -2 -10 4 -10 5 0 13 5 16 10 3 6 2 10 -4 10 -5 0 -13 -4 -16 -10z"/>
<path d="M1180 2000 c0 -5 5 -10 10 -10 6 0 10 5 10 10 0 6 -4 10 -10 10 -5 0 -10 -4 -10 -10z"/>
<path d="M1450 1966 c0 -8 -7 -17 -16 -20 -9 -4 -14 -9 -11 -12 9 -9 47 16 47 31 0 8 -4 15 -10 15 -5 0 -10 -6 -10 -14z"/>
<path d="M1455 1910 c-3 -5 1 -10 9 -10 8 0 18 5 21 10 3 6 -1 10 -9 10 -8 0 -18 -4 -21 -10z"/>
<path d="M1298 1903 c7 -3 16 -2 19 1 4 3 -2 6 -13 5 -11 0 -14 -3 -6 -6z"/>
<path d="M1226 1892 c-16 -26 27 -68 58 -56 23 9 20 23 -3 17 -14 -3 -24 3 -34 22 -8 16 -17 23 -21 17z"/>
<path d="M1365 1880 c-3 -5 1 -10 9 -10 9 0 16 5 16 10 0 6 -4 10 -9 10 -6 0 -13 -4 -16 -10z"/>
<path d="M1704 1824 c3 -9 6 -20 6 -25 0 -5 7 -9 15 -9 18 0 18 5 5 31 -13 23 -35 26 -26 3z"/>
<path d="M1636 1774 c-4 -9 -4 -19 -2 -22 10 -9 36 8 36 23 0 20 -26 19 -34 -1z"/>
<path d="M1784 1754 c3 -9 6 -22 6 -30 0 -8 7 -14 15 -14 20 0 20 46 -1 54 -24 9 -27 8 -20 -10z"/>
<path d="M1887 1685 c-3 -20 -1 -25 12 -23 9 2 17 13 19 26 5 31 -24 29 -31 -3z"/>
<path d="M1945 1680 c-4 -6 5 -10 19 -10 14 0 26 5 26 10 0 6 -9 10 -19 10 -11 0 -23 -4 -26 -10z"/>
<path d="M2030 1655 c-8 -9 -8 -15 -2 -15 12 0 26 19 19 26 -2 2 -10 -2 -17 -11z"/>
<path d="M2076 1614 c-4 -9 -4 -19 -2 -21 8 -8 26 8 26 23 0 19 -16 18 -24 -2z"/>
<path d="M1834 1595 c-9 -23 14 -45 26 -25 5 8 8 19 7 24 -6 17 -27 18 -33 1z"/>
<path d="M2130 1565 c0 -9 5 -15 11 -13 6 2 11 8 11 13 0 5 -5 11 -11 13 -6 2 -11 -4 -11 -13z"/>
<path d="M2177 1524 c-8 -8 1 -24 14 -24 5 0 9 7 9 15 0 15 -12 20 -23 9z"/>
<path d="M2241 1513 c2 -26 15 -42 28 -34 17 11 7 41 -14 41 -8 0 -15 -3 -14 -7z"/>
<path d="M2014 1476 c-4 -10 -2 -22 4 -28 8 -8 13 -7 18 6 4 10 2 22 -4 28 -8 8 -13 7 -18 -6z"/>
<path d="M1430 1450 c26 -21 70 -27 70 -10 0 6 -11 10 -24 10 -14 0 -28 5 -31 10 -3 6 -14 10 -23 10 -13 0 -12 -5 8 -20z"/>
<path d="M2280 1443 c0 -17 19 -35 29 -29 18 12 12 36 -9 36 -11 0 -20 -3 -20 -7z"/>
<path d="M1463 1393 c9 -9 20 -13 24 -9 4 4 1 11 -7 16 -25 16 -35 11 -17 -7z"/>
<path d="M2322 1369 c1 -13 8 -23 13 -21 15 3 12 35 -3 40 -9 3 -13 -3 -10 -19z"/>
<path d="M1480 1360 c0 -5 5 -10 11 -10 5 0 7 5 4 10 -3 6 -8 10 -11 10 -2 0 -4 -4 -4 -10z"/>
<path d="M2117 1300 c-4 -17 -9 -19 -31 -10 -21 7 -26 6 -26 -5 0 -22 63 -19 91 5 13 10 19 19 12 20 -6 0 -18 3 -26 6 -9 3 -16 -3 -20 -16z"/>
<path d="M1500 1280 c0 -5 5 -10 10 -10 6 0 10 5 10 10 0 6 -4 10 -10 10 -5 0 -10 -4 -10 -10z"/>
<path d="M2246 1254 c-4 -9 -4 -19 -2 -21 8 -8 26 8 26 23 0 19 -16 18 -24 -2z"/>
<path d="M1505 1250 c3 -5 10 -10 16 -10 5 0 9 5 9 10 0 6 -7 10 -16 10 -8 0 -12 -4 -9 -10z"/>
<path d="M1515 1220 c4 -6 11 -8 16 -5 14 9 11 15 -7 15 -8 0 -12 -5 -9 -10z"/>
<path d="M1515 1180 c3 -5 10 -10 16 -10 5 0 9 5 9 10 0 6 -7 10 -16 10 -8 0 -12 -4 -9 -10z"/>
<path d="M2406 1131 c-4 -5 -2 -12 3 -15 5 -4 12 -2 15 3 4 5 2 12 -3 15 -5 4 -12 2 -15 -3z"/>
<path d="M2310 1055 c0 -8 4 -15 9 -15 5 0 11 7 15 15 3 9 0 15 -9 15 -8 0 -15 -7 -15 -15z"/>
<path d="M2400 850 c0 -5 5 -10 10 -10 6 0 10 5 10 10 0 6 -4 10 -10 10 -5 0 -10 -4 -10 -10z"/>
<path d="M2198 3273 c7 -3 16 -2 19 1 4 3 -2 6 -13 5 -11 0 -14 -3 -6 -6z"/>
<path d="M2058 3253 c7 -3 16 -2 19 1 4 3 -2 6 -13 5 -11 0 -14 -3 -6 -6z"/>
<path d="M2250 3230 c36 -12 62 -12 55 0 -3 6 -23 10 -43 9 -33 -1 -34 -2 -12 -9z"/>
<path d="M2117 3223 c18 -2 50 -2 70 0 21 2 7 4 -32 4 -38 0 -55 -2 -38 -4z"/>
<path d="M2230 3104 c35 -7 84 -20 107 -28 24 -8 45 -11 48 -6 6 9 -158 50 -196 49 -13 0 5 -7 41 -15z"/>
<path d="M2195 3081 c33 -9 97 -34 143 -55 46 -21 86 -35 89 -32 13 12 -230 107 -271 105 -12 0 6 -8 39 -18z"/>
<path d="M2130 2967 c0 -7 104 -76 127 -83 10 -4 2 4 -17 17 -54 38 -110 71 -110 66z"/>
<path d="M2050 2957 c0 -3 12 -12 26 -22 15 -9 23 -12 20 -6 -7 11 -46 35 -46 28z"/>
<path d="M2125 2900 c10 -11 20 -20 23 -20 3 0 -3 9 -13 20 -10 11 -20 20 -23 20 -3 0 3 -9 13 -20z"/>
<path d="M2177 2859 c12 -12 25 -20 28 -17 3 3 -7 13 -22 23 l-28 17 22 -23z"/>
<path d="M2192 2743 c26 -26 50 -44 54 -40 8 7 -75 86 -91 87 -5 0 11 -21 37 -47z"/>
<path d="M2130 2725 c13 -14 26 -25 28 -25 3 0 -5 11 -18 25 -13 14 -26 25 -28 25 -3 0 5 -11 18 -25z"/>
<path d="M2216 2615 c31 -44 63 -93 71 -108 8 -16 17 -26 20 -24 10 10 -47 102 -97 157 l-50 55 56 -80z"/>
<path d="M1910 2745 c0 -3 11 -23 24 -43 38 -61 112 -212 130 -269 16 -47 46 -90 46 -65 0 15 -87 196 -142 295 -44 78 -58 98 -58 82z"/>
<path d="M2624 1444 c-3 -22 -16 -50 -28 -63 -14 -16 -16 -22 -6 -19 23 6 65 97 52 110 -7 7 -13 -1 -18 -28z"/>
<path d="M1180 1271 c26 -21 50 -27 50 -12 0 5 -8 11 -17 14 -10 2 -27 8 -38 12 -16 6 -15 3 5 -14z"/>
<path d="M1945 820 c3 -5 8 -10 11 -10 2 0 4 5 4 10 0 6 -5 10 -11 10 -5 0 -7 -4 -4 -10z"/>
</g>
</svg>